<svg width="18" height="10" viewBox="0 0 18 10" fill="none" xmlns="http://www.w3.org/2000/svg">
<path d="M17.3476 0.334288C17.131 0.117905 16.8373 -0.00363159 16.531 -0.00363159C16.2248 -0.00363159 15.9311 0.117905 15.7144 0.334288L8.83762 7.21108L1.94172 0.343839C1.72252 0.140461 1.43302 0.0299606 1.13406 0.035556C0.835091 0.0411515 0.54993 0.162407 0.338492 0.373845C0.127054 0.585284 0.00579805 0.870444 0.000202589 1.16941C-0.00539287 1.46838 0.105107 1.75788 0.308486 1.97708L7.94936 9.61796C8.14576 9.80658 8.40334 9.91843 8.67525 9.93314H8.77076C8.92294 9.93425 9.07384 9.90529 9.2148 9.84792C9.35575 9.79055 9.48399 9.70591 9.59215 9.59885L17.3476 1.96753C17.564 1.75084 17.6856 1.45713 17.6856 1.15091C17.6856 0.844681 17.564 0.550974 17.3476 0.334288Z" fill="#FF6403"/>
</svg>
