<svg width="13" height="13" viewBox="0 0 13 13" fill="none" xmlns="http://www.w3.org/2000/svg">
<path d="M12.1357 2.13574C12.624 1.64746 12.624 0.85449 12.1357 0.36621C11.6474 -0.12207 10.8545 -0.12207 10.3662 0.36621L6.25293 4.4834L2.13574 0.37012C1.64746 -0.11816 0.85449 -0.11816 0.36621 0.37012C-0.12207 0.8584 -0.12207 1.65137 0.36621 2.13965L4.4834 6.25293L0.37012 10.3701C-0.11816 10.8584 -0.11816 11.6513 0.37012 12.1396C0.8584 12.6279 1.65137 12.6279 2.13965 12.1396L6.25293 8.02243L10.3701 12.1357C10.8584 12.624 11.6513 12.624 12.1396 12.1357C12.6279 11.6474 12.6279 10.8545 12.1396 10.3662L8.02246 6.25293L12.1357 2.13574Z" fill="#FF6403"/>
</svg>
