<svg width="20" height="20" viewBox="0 0 20 20" fill="none" xmlns="http://www.w3.org/2000/svg">
<path fill-rule="evenodd" clip-rule="evenodd" d="M10 2.5C10.9849 2.5 11.9602 2.69399 12.8701 3.0709C13.7801 3.44781 14.6069 4.00026 15.3033 4.6967C15.9997 5.39314 16.5522 6.21993 16.9291 7.12987C17.306 8.03982 17.5 9.01509 17.5 10C17.5 10.9849 17.306 11.9602 16.9291 12.8701C16.5522 13.7801 15.9997 14.6069 15.3033 15.3033C14.6069 15.9997 13.7801 16.5522 12.8701 16.9291C11.9602 17.306 10.9849 17.5 10 17.5C8.01088 17.5 6.10322 16.7098 4.6967 15.3033C3.29018 13.8968 2.5 11.9891 2.5 10C2.5 8.01088 3.29018 6.10322 4.6967 4.6967C6.10322 3.29018 8.01088 2.5 10 2.5ZM10 4.16667C9.23396 4.16667 8.47541 4.31755 7.76768 4.6107C7.05995 4.90386 6.41688 5.33354 5.87521 5.87521C5.33353 6.41689 4.90385 7.05995 4.6107 7.76768C4.31755 8.47541 4.16667 9.23396 4.16667 10C4.16667 10.766 4.31755 11.5246 4.6107 12.2323C4.90385 12.9401 5.33353 13.5831 5.87521 14.1248C6.41688 14.6665 7.05995 15.0961 7.76768 15.3893C8.47541 15.6825 9.23396 15.8333 10 15.8333C11.5471 15.8333 13.0308 15.2188 14.1248 14.1248C15.2188 13.0308 15.8333 11.5471 15.8333 10C15.8333 8.4529 15.2188 6.96917 14.1248 5.87521C13.0308 4.78125 11.5471 4.16667 10 4.16667ZM10 5.83333C10.221 5.83333 10.433 5.92113 10.5893 6.07741C10.7455 6.23369 10.8333 6.44565 10.8333 6.66667V10C10.8333 10.221 10.7455 10.433 10.5893 10.5893C10.433 10.7455 10.221 10.8333 10 10.8333H7.5C7.27899 10.8333 7.06702 10.7455 6.91074 10.5893C6.75446 10.433 6.66667 10.221 6.66667 10C6.66667 9.77899 6.75446 9.56702 6.91074 9.41074C7.06702 9.25446 7.27899 9.16667 7.5 9.16667H9.16667V6.66667C9.16667 6.44565 9.25446 6.23369 9.41074 6.07741C9.56702 5.92113 9.77899 5.83333 10 5.83333Z" fill="#FF6403"/>
</svg>
