<svg width="252" height="56" viewBox="0 0 252 56" fill="none" xmlns="http://www.w3.org/2000/svg">
<path d="M21.9197 3.04004H13.2797V23.04H8.63969V3.04004H-0.000312477V0.640038H21.9197V3.04004ZM36.0022 0.640038C37.6022 0.640038 39.0315 0.821371 40.2902 1.18404C41.5702 1.52537 42.6475 2.03737 43.5222 2.72004C44.3969 3.38137 45.0689 4.2027 45.5382 5.18404C46.0075 6.14404 46.2422 7.24271 46.2422 8.48004C46.2422 10.1867 45.8155 11.6267 44.9622 12.8C44.1089 13.9734 42.8822 14.8694 41.2822 15.488L46.5622 23.04H41.2822L36.5782 16.32H36.0022H29.1222V23.04H24.4822V0.640038H36.0022ZM29.1222 3.04004V13.92H36.0022C37.6875 13.92 38.9889 13.4827 39.9062 12.608C40.8235 11.712 41.2822 10.336 41.2822 8.48004C41.2822 6.62404 40.8235 5.2587 39.9062 4.38404C38.9889 3.48804 37.6875 3.04004 36.0022 3.04004H29.1222ZM61.5959 21.44C62.6413 21.44 63.5799 21.3014 64.4119 21.024C65.2653 20.7254 65.9906 20.2774 66.5879 19.68C67.1853 19.0614 67.6439 18.2827 67.9639 17.344C68.3053 16.384 68.4759 15.2427 68.4759 13.92V0.640038H73.1159V13.92C73.1159 17.2054 72.1133 19.6587 70.1079 21.28C68.1026 22.88 65.2653 23.68 61.5959 23.68C57.9053 23.68 55.0573 22.88 53.0519 21.28C51.0679 19.6587 50.0759 17.2054 50.0759 13.92V0.640038H54.7159V13.92C54.7159 15.2427 54.8759 16.384 55.1959 17.344C55.5373 18.2827 56.0066 19.0614 56.6039 19.68C57.2013 20.2774 57.9159 20.7254 58.7479 21.024C59.6013 21.3014 60.5506 21.44 61.5959 21.44ZM90.4072 21.28C91.8579 21.28 93.2445 21.0347 94.5672 20.544C95.9112 20.032 97.1912 19.2107 98.4072 18.08L100.007 20C98.7912 21.1307 97.3192 22.0267 95.5912 22.688C93.8632 23.3494 92.0285 23.68 90.0872 23.68C88.0819 23.68 86.2685 23.424 84.6472 22.912C83.0472 22.4 81.6712 21.6427 80.5192 20.64C79.3885 19.6374 78.5139 18.4 77.8952 16.928C77.2765 15.456 76.9672 13.76 76.9672 11.84C76.9672 9.92004 77.2659 8.22404 77.8632 6.75204C78.4819 5.28004 79.3459 4.04271 80.4552 3.04004C81.5859 2.03737 82.9405 1.28004 84.5192 0.768038C86.0979 0.256038 87.8472 3.8147e-05 89.7672 3.8147e-05C91.7085 3.8147e-05 93.5432 0.330705 95.2712 0.992039C96.9992 1.65337 98.4712 2.54937 99.6872 3.68004L98.0872 5.60004C96.8712 4.46937 95.5912 3.6587 94.2472 3.16804C92.9245 2.65604 91.5379 2.40004 90.0872 2.40004C88.9352 2.40004 87.8579 2.59204 86.8552 2.97604C85.8525 3.33871 84.9885 3.90404 84.2632 4.67204C83.5379 5.44004 82.9619 6.42137 82.5352 7.61604C82.1299 8.78937 81.9272 10.1974 81.9272 11.84C81.9272 13.4827 82.1299 14.9014 82.5352 16.096C82.9619 17.2694 83.5485 18.24 84.2952 19.008C85.0632 19.776 85.9592 20.352 86.9832 20.736C88.0285 21.0987 89.1699 21.28 90.4072 21.28ZM117.288 11.68L125.768 23.04H120.488L113.128 13.12H107.528V23.04H102.888V0.640038H107.528V10.72H112.808L120.168 0.640038H125.288L117.288 11.68ZM21.9197 35.04H13.2797V55.04H8.63969V35.04H-0.000312477V32.64H21.9197V35.04ZM29.1222 35.04V42.4H40.8022V44.8H29.1222V52.64H44.0022V55.04H24.4822V32.64H44.0022V35.04H29.1222ZM59.0322 53.28C60.4829 53.28 61.8695 53.0347 63.1922 52.544C64.5362 52.032 65.8162 51.2107 67.0322 50.08L68.6322 52C67.4162 53.1307 65.9442 54.0267 64.2162 54.688C62.4882 55.3494 60.6535 55.68 58.7122 55.68C56.7069 55.68 54.8935 55.424 53.2722 54.912C51.6722 54.4 50.2962 53.6427 49.1442 52.64C48.0135 51.6374 47.1389 50.4 46.5202 48.928C45.9015 47.456 45.5922 45.76 45.5922 43.84C45.5922 41.92 45.8909 40.224 46.4882 38.752C47.1069 37.28 47.9709 36.0427 49.0802 35.04C50.2109 34.0374 51.5655 33.28 53.1442 32.768C54.7229 32.256 56.4722 32 58.3922 32C60.3335 32 62.1682 32.3307 63.8962 32.992C65.6242 33.6534 67.0962 34.5494 68.3122 35.68L66.7122 37.6C65.4962 36.4694 64.2162 35.6587 62.8722 35.168C61.5495 34.656 60.1629 34.4 58.7122 34.4C57.5602 34.4 56.4829 34.592 55.4802 34.976C54.4775 35.3387 53.6135 35.904 52.8882 36.672C52.1629 37.44 51.5869 38.4214 51.1602 39.616C50.7549 40.7894 50.5522 42.1974 50.5522 43.84C50.5522 45.4827 50.7549 46.9014 51.1602 48.096C51.5869 49.2694 52.1735 50.24 52.9202 51.008C53.6882 51.776 54.5842 52.352 55.6082 52.736C56.6535 53.0987 57.7949 53.28 59.0322 53.28ZM93.9134 32.64V55.04H89.2734V45.28H76.1534V55.04H71.5134V32.64H76.1534V42.88H89.2734V32.64H93.9134ZM121.428 32.64V55.04H115.348L103.348 36.8H103.028V55.04H98.3884V32.64H104.468L116.468 50.88H116.788V32.64H121.428ZM138.08 34.24C136.992 34.24 135.968 34.432 135.008 34.816C134.069 35.2 133.248 35.7867 132.544 36.576C131.84 37.3654 131.274 38.368 130.848 39.584C130.442 40.7787 130.24 42.1974 130.24 43.84C130.24 45.4827 130.442 46.912 130.848 48.128C131.274 49.3227 131.84 50.3147 132.544 51.104C133.248 51.8934 134.069 52.48 135.008 52.864C135.968 53.248 136.992 53.44 138.08 53.44C139.168 53.44 140.181 53.248 141.12 52.864C142.08 52.48 142.912 51.8934 143.616 51.104C144.32 50.3147 144.874 49.3227 145.28 48.128C145.706 46.912 145.92 45.4827 145.92 43.84C145.92 42.1974 145.706 40.7787 145.28 39.584C144.874 38.368 144.32 37.3654 143.616 36.576C142.912 35.7867 142.08 35.2 141.12 34.816C140.181 34.432 139.168 34.24 138.08 34.24ZM138.08 32C140 32 141.738 32.256 143.296 32.768C144.874 33.28 146.218 34.0374 147.328 35.04C148.458 36.0427 149.333 37.28 149.952 38.752C150.57 40.224 150.88 41.92 150.88 43.84C150.88 45.76 150.57 47.456 149.952 48.928C149.333 50.4 148.458 51.6374 147.328 52.64C146.218 53.6427 144.874 54.4 143.296 54.912C141.738 55.424 140 55.68 138.08 55.68C136.16 55.68 134.41 55.424 132.832 54.912C131.253 54.4 129.898 53.6427 128.768 52.64C127.658 51.6374 126.794 50.4 126.176 48.928C125.578 47.456 125.28 45.76 125.28 43.84C125.28 41.92 125.578 40.224 126.176 38.752C126.794 37.28 127.658 36.0427 128.768 35.04C129.898 34.0374 131.253 33.28 132.832 32.768C134.41 32.256 136.16 32 138.08 32ZM173.132 52.64V55.04H154.732V32.64H159.372V52.64H173.132ZM185.923 34.24C184.835 34.24 183.811 34.432 182.851 34.816C181.913 35.2 181.091 35.7867 180.387 36.576C179.683 37.3654 179.118 38.368 178.691 39.584C178.286 40.7787 178.083 42.1974 178.083 43.84C178.083 45.4827 178.286 46.912 178.691 48.128C179.118 49.3227 179.683 50.3147 180.387 51.104C181.091 51.8934 181.913 52.48 182.851 52.864C183.811 53.248 184.835 53.44 185.923 53.44C187.011 53.44 188.025 53.248 188.963 52.864C189.923 52.48 190.755 51.8934 191.459 51.104C192.163 50.3147 192.718 49.3227 193.123 48.128C193.55 46.912 193.763 45.4827 193.763 43.84C193.763 42.1974 193.55 40.7787 193.123 39.584C192.718 38.368 192.163 37.3654 191.459 36.576C190.755 35.7867 189.923 35.2 188.963 34.816C188.025 34.432 187.011 34.24 185.923 34.24ZM185.923 32C187.843 32 189.582 32.256 191.139 32.768C192.718 33.28 194.062 34.0374 195.171 35.04C196.302 36.0427 197.177 37.28 197.795 38.752C198.414 40.224 198.723 41.92 198.723 43.84C198.723 45.76 198.414 47.456 197.795 48.928C197.177 50.4 196.302 51.6374 195.171 52.64C194.062 53.6427 192.718 54.4 191.139 54.912C189.582 55.424 187.843 55.68 185.923 55.68C184.003 55.68 182.254 55.424 180.675 54.912C179.097 54.4 177.742 53.6427 176.611 52.64C175.502 51.6374 174.638 50.4 174.019 48.928C173.422 47.456 173.123 45.76 173.123 43.84C173.123 41.92 173.422 40.224 174.019 38.752C174.638 37.28 175.502 36.0427 176.611 35.04C177.742 34.0374 179.097 33.28 180.675 32.768C182.254 32.256 184.003 32 185.923 32ZM214.096 32C216.037 32 217.872 32.3307 219.6 32.992C221.328 33.6534 222.8 34.5494 224.016 35.68L222.416 37.6C221.2 36.4694 219.92 35.6587 218.576 35.168C217.253 34.656 215.867 34.4 214.416 34.4C213.328 34.4 212.325 34.592 211.408 34.976C210.491 35.3387 209.691 35.904 209.008 36.672C208.347 37.44 207.824 38.4214 207.44 39.616C207.077 40.7894 206.896 42.1974 206.896 43.84C206.896 45.5254 207.088 46.976 207.472 48.192C207.856 49.3867 208.389 50.3787 209.072 51.168C209.755 51.936 210.576 52.512 211.536 52.896C212.517 53.2587 213.584 53.44 214.736 53.44C215.696 53.44 216.517 53.3547 217.2 53.184C217.904 53.0134 218.491 52.8107 218.96 52.576C219.515 52.32 219.973 52.0214 220.336 51.68V45.6H216.176V43.52H224.976V52.32C224.187 52.96 223.269 53.5254 222.224 54.016C221.328 54.4427 220.219 54.8267 218.896 55.168C217.595 55.5094 216.101 55.68 214.416 55.68C212.496 55.68 210.768 55.424 209.232 54.912C207.696 54.4 206.384 53.6427 205.296 52.64C204.208 51.6374 203.376 50.4 202.8 48.928C202.224 47.456 201.936 45.76 201.936 43.84C201.936 41.92 202.224 40.224 202.8 38.752C203.376 37.28 204.187 36.0427 205.232 35.04C206.299 34.0374 207.579 33.28 209.072 32.768C210.587 32.256 212.261 32 214.096 32ZM240.657 48.32V55.04H236.017V48.32L225.617 32.64H230.737L238.257 44H238.417L245.937 32.64H251.057L240.657 48.32Z" fill="#121212"/>
</svg>
